<svg width="30" height="34" viewBox="0 0 30 34" fill="none" xmlns="http://www.w3.org/2000/svg">
<path opacity="0.5" d="M15 34C23.2843 34 30 27.2843 30 19C30 10.7157 23.2843 4 15 4C6.71573 4 0 10.7157 0 19C0 27.2843 6.71573 34 15 34Z" fill="#1381A5"/>
<circle cx="15" cy="15" r="15" fill="#82E1FF"/>
<mask id="mask0" mask-type="alpha" maskUnits="userSpaceOnUse" x="0" y="0" width="30" height="30">
<circle cx="15" cy="15" r="15" fill="#82E1FF"/>
</mask>
<g mask="url(#mask0)">
<circle cx="25" cy="6" r="15" fill="#D0F4FF"/>
</g>
<circle cx="15" cy="16" r="11" fill="#D0F4FF"/>
<circle cx="15" cy="15" r="11" fill="#23657A"/>
<circle cx="15" cy="15" r="9" fill="#82E1FF"/>
<path d="M20.7608 12.3027C20.17 13.1248 19.3306 11.4306 17.7608 10.3027C16.191 9.17475 13.67 8.62484 14.2607 7.80269C14.8515 6.98054 17.191 7.17476 18.7608 8.30269C20.3306 9.43063 21.3515 11.4805 20.7608 12.3027Z" fill="white"/>
<path d="M7.66902 16.206C8.3959 15.5013 8.92237 17.3173 10.2678 18.7052C11.6133 20.0931 13.9972 21.0803 13.2703 21.785C12.5434 22.4897 10.2752 21.8846 8.92974 20.4967C7.58429 19.1088 6.94214 16.9106 7.66902 16.206Z" fill="#58CDF2"/>
<path d="M22.5013 15.5C22.5013 16.3284 22.0536 17 21.5013 17C20.949 17 21.0012 16.3284 21.0012 15.5C21.0012 14.6716 20.949 14 21.5013 14C22.0536 14 22.5013 14.6716 22.5013 15.5Z" fill="white"/>
<path d="M21.2723 13.4577C20.5234 10.7272 17.8825 8.85595 14.9854 9.00871C13.5073 9.10418 12.2066 9.61973 11.1423 10.5554C9.86131 11.6819 9.17153 13.114 9.0927 14.8325H8.8365C8.48175 14.8325 8.18613 15.0234 8.06788 15.329C7.92993 15.6345 8.00876 15.9782 8.24526 16.2073L9.34891 17.2575C9.68394 17.563 10.1964 17.563 10.5314 17.2575L11.6153 16.2073C11.8518 15.9782 11.9307 15.6345 11.7927 15.329C11.6547 15.0234 11.3591 14.8325 11.0241 14.8325H10.8467C10.8861 13.305 11.9307 11.5292 13.9409 10.88C15.9117 10.2498 18.119 11.0709 19.1635 12.8085C19.7745 13.8205 19.9321 14.9853 19.6365 16.0927C19.3409 17.2193 18.5723 18.174 17.508 18.785C16.9562 19.1097 16.3058 19.2815 15.6161 19.3388C14.473 19.4152 13.4482 19.1097 12.5613 18.4413C12.2263 18.1931 11.7336 18.2122 11.438 18.5177C11.2606 18.6896 11.1818 18.9187 11.1818 19.1478C11.2015 19.377 11.3197 19.6061 11.4971 19.7398C12.581 20.5799 13.9212 21 15.2613 21C16.2664 21 17.2912 20.7709 18.2175 20.2744C20.7599 18.976 22.0212 16.1691 21.2723 13.4577Z" fill="#23657A"/>
<path d="M15.0646 11.6434C14.5719 11.6434 14.1777 12.0253 14.1777 12.5027V15.2714C14.1777 15.7487 14.5719 16.1306 15.0646 16.1306H18.0208C18.5135 16.1306 18.9077 15.7487 18.9077 15.2714C18.9077 14.794 18.5135 14.4121 18.0208 14.4121H15.9515V12.5027C15.9515 12.0253 15.5573 11.6434 15.0646 11.6434Z" fill="#23657A"/>
</svg>
