<svg width="30" height="34" viewBox="0 0 30 34" fill="none" xmlns="http://www.w3.org/2000/svg">
<path opacity="0.5" d="M15 34C23.2843 34 30 27.2843 30 19C30 10.7157 23.2843 4 15 4C6.71573 4 0 10.7157 0 19C0 27.2843 6.71573 34 15 34Z" fill="#1381A5"/>
<circle cx="15" cy="15" r="15" fill="#82E1FF"/>
<mask id="mask0" mask-type="alpha" maskUnits="userSpaceOnUse" x="0" y="0" width="30" height="30">
<circle cx="15" cy="15" r="15" fill="#82E1FF"/>
</mask>
<g mask="url(#mask0)">
<circle cx="25" cy="6" r="15" fill="#D0F4FF"/>
</g>
<circle cx="15" cy="16" r="11" fill="#D0F4FF"/>
<circle cx="15" cy="15" r="11" fill="#23657A"/>
<circle cx="15" cy="15" r="9" fill="#82E1FF"/>
<path d="M20.7608 12.3027C20.17 13.1248 19.3306 11.4306 17.7608 10.3027C16.191 9.17475 13.67 8.62484 14.2607 7.80269C14.8515 6.98054 17.191 7.17476 18.7608 8.30269C20.3306 9.43063 21.3515 11.4805 20.7608 12.3027Z" fill="white"/>
<path d="M7.66902 16.206C8.3959 15.5013 8.92237 17.3173 10.2678 18.7052C11.6133 20.0931 13.9972 21.0803 13.2703 21.785C12.5434 22.4897 10.2752 21.8846 8.92974 20.4967C7.58429 19.1088 6.94214 16.9106 7.66902 16.206Z" fill="#58CDF2"/>
<path d="M22.5013 15.5C22.5013 16.3284 22.0536 17 21.5013 17C20.949 17 21.0012 16.3284 21.0012 15.5C21.0012 14.6716 20.949 14 21.5013 14C22.0536 14 22.5013 14.6716 22.5013 15.5Z" fill="white"/>
<path d="M21.493 15.3935C21.3042 18.6225 18.7042 21.2435 15.4962 21.4741C14.2801 21.558 13.1478 21.3274 12.1413 20.8241C13.7559 19.2516 16.7123 16.358 17.7397 15.3516C17.8655 15.2258 17.7817 14.9951 17.593 14.9951H15.9994C15.8526 14.9951 15.7478 14.8483 15.8107 14.7225C16.2091 13.5903 16.7752 11.9338 17.1107 10.9274C17.1736 10.7177 16.922 10.55 16.7542 10.7177C15.0349 12.4371 13.3155 14.1564 11.5962 15.8758C11.3236 16.1483 11.5123 16.5887 11.8897 16.5887H13.001C13.1478 16.5887 13.2526 16.7354 13.1897 16.8822C12.7075 18.1403 12.2462 19.3983 11.7639 20.6354C9.70909 19.4403 8.34619 17.1548 8.51393 14.5548C8.72361 11.3258 11.3446 8.72576 14.5526 8.51608C18.4946 8.2435 21.7236 11.4725 21.493 15.3935Z" fill="#23657A"/>
</svg>
