<svg width="115" height="37" viewBox="0 0 115 37" fill="none" xmlns="http://www.w3.org/2000/svg">
<g clip-path="url(#clip0)">
<path opacity="0.5" d="M16.5 37C25.6127 37 33 29.6918 33 20.6765C33 11.6612 25.6127 4.35297 16.5 4.35297C7.3873 4.35297 0 11.6612 0 20.6765C0 29.6918 7.3873 37 16.5 37Z" fill="#1381A5"/>
<path d="M16.5 32.6471C25.6127 32.6471 33 25.3388 33 16.3235C33 7.30829 25.6127 0 16.5 0C7.3873 0 0 7.30829 0 16.3235C0 25.3388 7.3873 32.6471 16.5 32.6471Z" fill="#82E1FF"/>
<mask id="mask0" mask-type="alpha" maskUnits="userSpaceOnUse" x="0" y="0" width="33" height="33">
<path d="M16.5 32.6471C25.6127 32.6471 33 25.3388 33 16.3235C33 7.30829 25.6127 0 16.5 0C7.3873 0 0 7.30829 0 16.3235C0 25.3388 7.3873 32.6471 16.5 32.6471Z" fill="#82E1FF"/>
</mask>
<g mask="url(#mask0)">
<path d="M27.5 22.8529C36.6127 22.8529 44 15.5446 44 6.5294C44 -2.48583 36.6127 -9.79413 27.5 -9.79413C18.3873 -9.79413 11 -2.48583 11 6.5294C11 15.5446 18.3873 22.8529 27.5 22.8529Z" fill="#D0F4FF"/>
<path d="M16.5 29.3823C23.1827 29.3823 28.6 24.0229 28.6 17.4117C28.6 10.8006 23.1827 5.44116 16.5 5.44116C9.81738 5.44116 4.40002 10.8006 4.40002 17.4117C4.40002 24.0229 9.81738 29.3823 16.5 29.3823Z" fill="#D0F4FF"/>
<path d="M16.5 28.2941C23.1827 28.2941 28.6 22.9347 28.6 16.3236C28.6 9.71238 23.1827 4.35297 16.5 4.35297C9.81738 4.35297 4.40002 9.71238 4.40002 16.3236C4.40002 22.9347 9.81738 28.2941 16.5 28.2941Z" fill="#23657A"/>
<path d="M16.5 26.1177C21.9676 26.1177 26.4 21.7327 26.4 16.3235C26.4 10.9144 21.9676 6.52942 16.5 6.52942C11.0324 6.52942 6.59998 10.9144 6.59998 16.3235C6.59998 21.7327 11.0324 26.1177 16.5 26.1177Z" fill="#82E1FF"/>
<path d="M22.8369 13.3882C22.1871 14.2829 21.2637 12.4392 19.5369 11.2118C17.8102 9.98428 15.0371 9.38585 15.6868 8.49116C16.3367 7.59646 18.9102 7.80782 20.6369 9.03527C22.3637 10.2627 23.4867 12.4935 22.8369 13.3882Z" fill="white"/>
<path d="M8.43592 17.6359C9.23549 16.8691 9.8146 18.8453 11.2946 20.3557C12.7746 21.866 15.3969 22.9403 14.5973 23.7072C13.7977 24.4741 11.3027 23.8156 9.82271 22.3052C8.34272 20.7949 7.63635 18.4027 8.43592 17.6359Z" fill="#58CDF2"/>
<path d="M24.7514 16.8676C24.7514 17.7691 24.2589 18.5 23.6514 18.5C23.0439 18.5 23.1013 17.7691 23.1013 16.8676C23.1013 15.9661 23.0439 15.2353 23.6514 15.2353C24.2589 15.2353 24.7514 15.9661 24.7514 16.8676Z" fill="white"/>
<path d="M23.3996 14.6452C22.5758 11.6737 19.6708 9.63737 16.484 9.80361C14.8581 9.9075 13.4273 10.4685 12.2566 11.4868C10.8475 12.7127 10.0887 14.2711 10.002 16.1413H9.7202C9.32997 16.1413 9.00479 16.349 8.87472 16.6816C8.72297 17.014 8.80968 17.3881 9.06983 17.6374L10.2838 18.7802C10.6524 19.1127 11.2161 19.1127 11.5846 18.7802L12.7769 17.6374C13.037 17.3881 13.1238 17.014 12.972 16.6816C12.8202 16.349 12.4951 16.1413 12.1266 16.1413H11.9314C11.9748 14.479 13.1238 12.5465 15.335 11.84C17.5029 11.1542 19.9309 12.0478 21.0799 13.9387C21.752 15.04 21.9254 16.3075 21.6002 17.5127C21.275 18.7387 20.4296 19.7776 19.2588 20.4425C18.6519 20.7959 17.9364 20.9828 17.1778 21.0452C15.9203 21.1283 14.7931 20.7959 13.8175 20.0685C13.449 19.7984 12.907 19.8192 12.5818 20.1516C12.3867 20.3387 12.3 20.588 12.3 20.8373C12.3217 21.0867 12.4517 21.3361 12.6469 21.4816C13.8391 22.3958 15.3134 22.853 16.7875 22.853C17.8931 22.853 19.0204 22.6036 20.0393 22.0633C22.8359 20.6504 24.2234 17.5958 23.3996 14.6452Z" fill="#23657A"/>
<path d="M16.571 12.6708C16.0291 12.6708 15.5955 13.0864 15.5955 13.6059V16.6189C15.5955 17.1383 16.0291 17.5539 16.571 17.5539H19.8229C20.3648 17.5539 20.7985 17.1383 20.7985 16.6189C20.7985 16.0994 20.3648 15.6838 19.8229 15.6838H17.5466V13.6059C17.5466 13.0864 17.113 12.6708 16.571 12.6708Z" fill="#23657A"/>
</g>
</g>
<g clip-path="url(#clip1)">
<path opacity="0.5" d="M57.5 37C66.6127 37 74 29.6918 74 20.6765C74 11.6612 66.6127 4.35297 57.5 4.35297C48.3873 4.35297 41 11.6612 41 20.6765C41 29.6918 48.3873 37 57.5 37Z" fill="#1381A5"/>
<path d="M57.5 32.6471C66.6127 32.6471 74 25.3388 74 16.3235C74 7.30829 66.6127 0 57.5 0C48.3873 0 41 7.30829 41 16.3235C41 25.3388 48.3873 32.6471 57.5 32.6471Z" fill="#82E1FF"/>
<mask id="mask1" mask-type="alpha" maskUnits="userSpaceOnUse" x="41" y="0" width="33" height="33">
<path d="M57.5 32.6471C66.6127 32.6471 74 25.3388 74 16.3235C74 7.30829 66.6127 0 57.5 0C48.3873 0 41 7.30829 41 16.3235C41 25.3388 48.3873 32.6471 57.5 32.6471Z" fill="#82E1FF"/>
</mask>
<g mask="url(#mask1)">
<path d="M68.5 22.8529C77.6127 22.8529 85 15.5446 85 6.5294C85 -2.48583 77.6127 -9.79413 68.5 -9.79413C59.3873 -9.79413 52 -2.48583 52 6.5294C52 15.5446 59.3873 22.8529 68.5 22.8529Z" fill="#D0F4FF"/>
<path d="M57.5 29.3823C64.1827 29.3823 69.6 24.0229 69.6 17.4117C69.6 10.8006 64.1827 5.44116 57.5 5.44116C50.8174 5.44116 45.4 10.8006 45.4 17.4117C45.4 24.0229 50.8174 29.3823 57.5 29.3823Z" fill="#D0F4FF"/>
<path d="M57.5 28.2941C64.1827 28.2941 69.6 22.9347 69.6 16.3236C69.6 9.71238 64.1827 4.35297 57.5 4.35297C50.8174 4.35297 45.4 9.71238 45.4 16.3236C45.4 22.9347 50.8174 28.2941 57.5 28.2941Z" fill="#23657A"/>
<path d="M57.5 26.1177C62.9676 26.1177 67.4 21.7327 67.4 16.3235C67.4 10.9144 62.9676 6.52942 57.5 6.52942C52.0324 6.52942 47.6 10.9144 47.6 16.3235C47.6 21.7327 52.0324 26.1177 57.5 26.1177Z" fill="#82E1FF"/>
<path d="M63.8369 13.3882C63.1871 14.2829 62.2637 12.4392 60.5369 11.2118C58.8102 9.98428 56.0371 9.38585 56.6868 8.49116C57.3367 7.59646 59.9102 7.80782 61.6369 9.03527C63.3637 10.2627 64.4867 12.4935 63.8369 13.3882Z" fill="white"/>
<path d="M49.4359 17.6359C50.2355 16.8691 50.8146 18.8453 52.2946 20.3557C53.7746 21.866 56.3969 22.9403 55.5973 23.7072C54.7977 24.4741 52.3027 23.8156 50.8227 22.3052C49.3427 20.7949 48.6364 18.4027 49.4359 17.6359Z" fill="#58CDF2"/>
<path d="M65.7514 16.8676C65.7514 17.7691 65.2589 18.5 64.6514 18.5C64.0439 18.5 64.1013 17.7691 64.1013 16.8676C64.1013 15.9661 64.0439 15.2353 64.6514 15.2353C65.2589 15.2353 65.7514 15.9661 65.7514 16.8676Z" fill="white"/>
</g>
<g clip-path="url(#clip2)">
<path d="M62.3985 10.8143H61.2125V10.2022C61.2125 9.97685 61.0279 9.79413 60.8 9.79413C60.5722 9.79413 60.3875 9.97685 60.3875 10.2022V10.8143H54.6125V10.2022C54.6125 9.97685 54.4279 9.79413 54.2 9.79413C53.9722 9.79413 53.7875 9.97685 53.7875 10.2022V10.8143H52.6016C51.6633 10.8143 50.9 11.5695 50.9 12.4977V21.1696C50.9 22.0978 51.6633 22.853 52.6016 22.853H62.3985C63.3367 22.853 64.1 22.0978 64.1 21.1696V12.4977C64.1 11.5695 63.3367 10.8143 62.3985 10.8143ZM63.275 21.1696C63.275 21.6485 62.8826 22.0368 62.3985 22.0368H52.6016C52.1175 22.0368 51.725 21.6485 51.725 21.1696V14.4106C51.725 14.3402 51.7827 14.2831 51.8539 14.2831H63.1461C63.2173 14.2831 63.275 14.3402 63.275 14.4106V21.1696Z" fill="#23657A"/>
</g>
</g>
<g clip-path="url(#clip3)">
<path opacity="0.5" d="M98.5 37C107.613 37 115 29.6918 115 20.6765C115 11.6612 107.613 4.35297 98.5 4.35297C89.3873 4.35297 82 11.6612 82 20.6765C82 29.6918 89.3873 37 98.5 37Z" fill="#1381A5"/>
<path d="M98.5 32.6471C107.613 32.6471 115 25.3388 115 16.3235C115 7.30829 107.613 0 98.5 0C89.3873 0 82 7.30829 82 16.3235C82 25.3388 89.3873 32.6471 98.5 32.6471Z" fill="#82E1FF"/>
<mask id="mask2" mask-type="alpha" maskUnits="userSpaceOnUse" x="82" y="0" width="33" height="33">
<path d="M98.5 32.6471C107.613 32.6471 115 25.3388 115 16.3235C115 7.30829 107.613 0 98.5 0C89.3873 0 82 7.30829 82 16.3235C82 25.3388 89.3873 32.6471 98.5 32.6471Z" fill="#82E1FF"/>
</mask>
<g mask="url(#mask2)">
<path d="M109.5 22.8529C118.613 22.8529 126 15.5446 126 6.5294C126 -2.48583 118.613 -9.79413 109.5 -9.79413C100.387 -9.79413 93 -2.48583 93 6.5294C93 15.5446 100.387 22.8529 109.5 22.8529Z" fill="#D0F4FF"/>
<path d="M98.5 29.3823C105.183 29.3823 110.6 24.0229 110.6 17.4117C110.6 10.8006 105.183 5.44116 98.5 5.44116C91.8174 5.44116 86.4 10.8006 86.4 17.4117C86.4 24.0229 91.8174 29.3823 98.5 29.3823Z" fill="#D0F4FF"/>
<path d="M98.5 28.2941C105.183 28.2941 110.6 22.9347 110.6 16.3236C110.6 9.71238 105.183 4.35297 98.5 4.35297C91.8174 4.35297 86.4 9.71238 86.4 16.3236C86.4 22.9347 91.8174 28.2941 98.5 28.2941Z" fill="#23657A"/>
<path d="M98.5 26.1177C103.968 26.1177 108.4 21.7327 108.4 16.3235C108.4 10.9144 103.968 6.52942 98.5 6.52942C93.0324 6.52942 88.6 10.9144 88.6 16.3235C88.6 21.7327 93.0324 26.1177 98.5 26.1177Z" fill="#82E1FF"/>
<path d="M104.837 13.3882C104.187 14.2829 103.264 12.4392 101.537 11.2118C99.8102 9.98428 97.0371 9.38585 97.6868 8.49116C98.3367 7.59646 100.91 7.80782 102.637 9.03527C104.364 10.2627 105.487 12.4935 104.837 13.3882Z" fill="white"/>
<path d="M90.4359 17.6359C91.2355 16.8691 91.8146 18.8453 93.2946 20.3557C94.7746 21.866 97.3969 22.9403 96.5973 23.7072C95.7977 24.4741 93.3027 23.8156 91.8227 22.3052C90.3427 20.7949 89.6364 18.4027 90.4359 17.6359Z" fill="#58CDF2"/>
<path d="M106.751 16.8676C106.751 17.7691 106.259 18.5 105.651 18.5C105.044 18.5 105.101 17.7691 105.101 16.8676C105.101 15.9661 105.044 15.2353 105.651 15.2353C106.259 15.2353 106.751 15.9661 106.751 16.8676Z" fill="white"/>
</g>
<g clip-path="url(#clip4)">
<path d="M104.376 14.9056L103.342 14.7755C103.256 14.516 103.151 14.2657 103.029 14.0279L103.667 13.2145C103.926 12.8853 103.896 12.4206 103.6 12.1376L102.734 11.2807C102.445 10.9857 101.975 10.9564 101.642 11.2116L100.821 11.8433C100.581 11.7219 100.328 11.618 100.065 11.5337L99.9333 10.5124C99.8838 10.1026 99.5324 9.79413 99.116 9.79413H97.884C97.4677 9.79413 97.1162 10.1026 97.0667 10.5107L96.9353 11.5337C96.6724 11.618 96.4194 11.7214 96.179 11.8433L95.3573 11.2116C95.0251 10.9564 94.5554 10.9857 94.2689 11.2779L93.4026 12.1344C93.1045 12.4206 93.0743 12.8853 93.3328 13.215L93.9713 14.0279C93.8481 14.2657 93.7436 14.516 93.6584 14.7755L92.626 14.9056C92.2119 14.9545 91.9 15.3022 91.9 15.7141V16.933C91.9 17.3448 92.2119 17.6925 92.6244 17.7415L93.6584 17.8716C93.7436 18.1311 93.8487 18.3814 93.9713 18.6192L93.3328 19.4326C93.0743 19.7618 93.1045 20.2265 93.3999 20.5094L94.2661 21.3664C94.5554 21.6608 95.0246 21.6902 95.3579 21.435L96.1796 20.8033C96.4199 20.9251 96.6729 21.0291 96.9353 21.1129L97.0667 22.1336C97.1162 22.5444 97.4677 22.853 97.884 22.853H99.116C99.5324 22.853 99.8838 22.5444 99.9333 22.1363L100.065 21.1134C100.327 21.0291 100.58 20.9251 100.82 20.8038L101.643 21.4355C101.975 21.6913 102.445 21.6613 102.731 21.3691L103.597 20.5122C103.896 20.226 103.926 19.7618 103.667 19.4321L103.029 18.6192C103.152 18.3814 103.257 18.1311 103.342 17.8716L104.373 17.7415C104.788 17.6925 105.099 17.3448 105.099 16.933V15.7141C105.1 15.3022 104.788 14.9545 104.376 14.9056ZM98.5 19.0441C96.9837 19.0441 95.75 17.8237 95.75 16.3235C95.75 14.8234 96.9837 13.603 98.5 13.603C100.016 13.603 101.25 14.8234 101.25 16.3235C101.25 17.8237 100.016 19.0441 98.5 19.0441Z" fill="#23657A"/>
</g>
</g>
<defs>
<clipPath id="clip0">
<rect width="33" height="37" fill="white"/>
</clipPath>
<clipPath id="clip1">
<rect width="33" height="37" fill="white" transform="translate(41)"/>
</clipPath>
<clipPath id="clip2">
<rect width="13.2" height="13.0588" fill="white" transform="translate(50.9 9.79413)"/>
</clipPath>
<clipPath id="clip3">
<rect width="33" height="37" fill="white" transform="translate(82)"/>
</clipPath>
<clipPath id="clip4">
<rect width="13.2" height="13.0588" fill="white" transform="translate(91.9 9.79413)"/>
</clipPath>
</defs>
</svg>
