<svg width="134" height="82" viewBox="0 0 134 82" fill="none" xmlns="http://www.w3.org/2000/svg">
<ellipse cx="11.5" cy="39.3022" rx="10.5" ry="2.5" fill="#C4EFFF"/>
<ellipse rx="10.5" ry="2.5" transform="matrix(-1 0 0 1 122.391 39.3027)" fill="#C4EFFF"/>
<ellipse cx="20.1628" cy="8.62756" rx="10.5" ry="2.5" transform="rotate(39.6735 20.1628 8.62756)" fill="#C4EFFF"/>
<ellipse rx="10.5" ry="2.5" transform="matrix(-0.769695 0.638411 0.638411 0.769695 113.728 8.62756)" fill="#C4EFFF"/>
<ellipse cx="17.9609" cy="24.628" rx="6.5" ry="2.5" transform="rotate(22.8257 17.9609 24.628)" fill="#C4EFFF"/>
<ellipse rx="6.5" ry="2.5" transform="matrix(-0.921689 0.387929 0.387929 0.921689 115.93 24.6285)" fill="#C4EFFF"/>
<ellipse cx="4.15097" cy="28.466" rx="3.85539" ry="2.01253" transform="rotate(10.2052 4.15097 28.466)" fill="#C4EFFF"/>
<ellipse rx="3.85539" ry="2.01253" transform="matrix(-0.984179 0.177174 0.177174 0.984179 129.74 28.4665)" fill="#C4EFFF"/>
<ellipse cx="33.1509" cy="4.46592" rx="3.85539" ry="2.01253" transform="rotate(58.2567 33.1509 4.46592)" fill="#C4EFFF"/>
<ellipse rx="3.85539" ry="2.01253" transform="matrix(-0.526115 0.850413 0.850413 0.526115 100.74 4.46641)" fill="#C4EFFF"/>
<path d="M89.6978 35.1219C89.1724 33.9726 88.5528 32.8367 87.973 31.7737L87.9617 31.753C88.6612 30.6185 89.3705 29.3913 90.1013 28.1269C90.6898 27.1086 91.2923 26.0662 91.9148 25.0286C92.4088 24.2053 92.2481 23.1472 91.5319 22.5077C90.0391 21.1749 88.6089 19.8709 87.1567 18.5468C85.8232 17.3309 84.4712 16.0981 83.0349 14.8105C82.3147 14.1647 81.2355 14.127 80.472 14.7209C79.791 15.2506 79.0778 15.7852 78.3641 16.3202C77.7636 16.7703 77.1628 17.2206 76.5804 17.6686L69.0114 11.89C69.0013 11.8536 68.9907 11.8148 68.9794 11.7734L68.9698 11.7383C68.9074 11.509 68.8181 11.181 68.6945 10.8538C68.5495 10.3776 68.2822 9.73277 67.6972 9.22573C67.0195 8.63836 66.2318 8.49961 65.5998 8.49961H65.5963H65.5928H65.5893H65.5858H65.5823H65.5788H65.5752H65.5717H65.5682H65.5647H65.5612H65.5577H65.5541H65.5506H65.5471H65.5436H65.5401H65.5366H65.5331H65.5295H65.526H65.5225H65.519H65.5155H65.512H65.5084H65.5049H65.5014H65.4979H65.4944H65.4909H65.4873H65.4838H65.4803H65.4768H65.4733H65.4698H65.4663H65.4627H65.4592H65.4557H65.4522H65.4487H65.4452H65.4416H65.4381H65.4346H65.4311H65.4276H65.4241H65.4205H65.417H65.4135H65.41H65.4065H65.403H65.3995H65.3959H65.3924H65.3889H65.3854H65.3819H65.3784H65.3748H65.3713H65.3678H65.3643H65.3608H65.3573H65.3538H65.3502H65.3467H65.3432H65.3397H65.3362H65.3327H65.3291H65.3256H65.3221H65.3186H65.3151H65.3116H65.308H65.3045H65.301H65.2975H65.294H65.2905H65.287H65.2834H65.2799H65.2764H65.2729H65.2694H65.2659H65.2623H65.2588H65.2553H65.2518H65.2483H65.2448H65.2413H65.2377H65.2342H65.2307H65.2272H65.2237H65.2202H65.2166H65.2131H65.2096H65.2061H65.2026H65.1991H65.1955H65.192H65.1885H65.185H65.1815H65.178H65.1745H65.1709H65.1674H65.1639H65.1604H65.1569H65.1534H65.1498H65.1463H65.1428H65.1393H65.1358H65.1323H65.1288H65.1252H65.1217H65.1182H65.1147H65.1112H65.1077H65.1041H65.1006H65.0971H65.0936H65.0901H65.0866H65.083H65.0795H65.076H65.0725H65.069H65.0655H65.062H65.0584H65.0549H65.0514H65.0479H65.0444H65.0409H65.0373H65.0338H65.0303H65.0268H65.0233H65.0198H65.0163H65.0127H65.0092H65.0057H65.0022H64.9987H64.9952H64.9916H64.9881H64.9846H64.9811H64.9776H64.9741H64.9706H64.967H64.9635H64.96H64.9565H64.953H64.9495H64.9459H64.9424H64.9389H64.9354H64.9319H64.9284H64.9248H64.9213H64.9178H64.9143H64.9108H64.9073H64.9038H64.9002H64.8967H64.8932H64.8897H64.8862H64.8827H64.8791H64.8756H64.8721H64.8686H64.8651H64.8616H64.8581H64.8545H64.851H64.8475H64.844H64.8405H64.837H64.8334H64.8299H64.8264H64.8229H64.8194H64.8159H64.8123H64.8088H64.8053H64.8018H64.7983H64.7948H64.7913H64.7877H64.7842H64.7807H64.7772H64.7737H64.7702H64.7666H64.7631H64.7596H64.7561H64.7526H64.7491H64.7455H64.742H64.7385H64.735H64.7315H64.728H64.7245H64.7209H64.7174H64.7139H64.7104H64.7069H64.7034H64.6998H64.6963H64.6928H64.6893H64.6858H64.6823H64.6788H64.6752H64.6717H64.6682H64.6647H64.6612H64.6577H64.6541H64.6506H64.6471H64.6436H64.6401H64.6366H64.633H64.6295H64.626H64.6225H64.619H64.6155H64.612H64.6084H64.6049H64.6014H64.5979H64.5944H64.5909H64.5873H64.5838H64.5803H64.5768H64.5733H64.5698H64.5663H64.5627H64.5592H64.5557H64.5522H64.5487H64.5452H64.5416H64.5381H64.5346H64.5311H64.5276H64.5241H64.5205H64.517H64.5135H64.51H64.5065H64.503H64.4995H64.4959H64.4924H64.4889H64.4854H64.4825L60.6227 5.51704C59.8265 4.90177 58.6972 4.97387 57.9856 5.6854L54.3856 9.2854C53.695 9.976 53.5086 10.8489 53.5002 11.549C53.4512 12.6637 53.3783 13.8061 53.3039 14.9722L53.3032 14.9826C53.2518 15.7889 53.1996 16.6066 53.1555 17.4208L52.1408 17.6181L46.7983 11.5749C46.4328 11.1615 45.9128 10.9175 45.3613 10.9006C44.8098 10.8836 44.2758 11.0952 43.8856 11.4854L40.2856 15.0854C40.2556 15.1154 40.2265 15.1464 40.1984 15.1784C39.0179 16.5198 37.8656 17.7983 36.6923 19.1C35.6252 20.2839 34.5407 21.4871 33.4019 22.7745C32.7474 23.5143 32.731 24.6211 33.3634 25.38C33.9857 26.1267 34.5922 26.8711 35.193 27.6085C36.4549 29.1573 37.6916 30.6752 38.9964 32.1189C39.0015 32.125 39.0065 32.1309 39.0112 32.1366C38.6178 33.1361 38.3196 34.1958 38.1086 35.1713C37.7935 35.2155 37.4898 35.266 37.2106 35.3136L36.5082 34.1597C36.1918 33.6399 35.656 33.2924 35.0523 33.2156C34.4486 33.1388 33.8428 33.341 33.4063 33.7651L29.9063 37.1651L29.8856 37.1854C28.8007 38.2703 29.0324 39.6603 29.1265 40.2252L29.1271 40.2284C29.1358 40.2809 29.1467 40.333 29.1596 40.3847C29.151 40.3506 29.1465 40.3291 29.1458 40.3292C29.1448 40.3294 29.1559 40.3961 29.1791 40.5778C29.2062 40.7893 29.2406 41.0781 29.28 41.4226C29.3588 42.11 29.455 42.9944 29.5486 43.8737C29.642 44.7521 29.7324 45.6212 29.7993 46.2763C29.8327 46.604 29.8602 46.8768 29.8792 47.0697C29.8887 47.1662 29.8958 47.2401 29.9005 47.2901C29.9213 48.7457 30.4457 49.9936 31.5683 50.8291C32.5556 51.5638 33.7639 51.7798 34.6662 51.8859L34.6662 51.886L34.679 51.8874C35.4897 51.9775 36.3383 52.137 37.2781 52.3148L37.3139 52.3215C38.2146 52.4919 39.2027 52.6789 40.179 52.7874C40.1864 52.7882 40.1933 52.789 40.1999 52.7899C40.2206 52.8238 40.2466 52.8693 40.2781 52.9296C40.7339 54.0492 41.2933 55.0453 41.9357 56.009C41.9395 56.0146 41.9432 56.0202 41.947 56.0257C41.9518 56.0327 41.9566 56.0396 41.9614 56.0465C41.9906 56.0882 42.014 56.1242 42.0326 56.1548C42.0228 56.1685 42.012 56.1835 41.9998 56.1996C41.973 56.2354 41.9474 56.2721 41.923 56.3096C41.1549 57.4913 40.4017 58.7986 39.6471 60.1082C39.1309 61.0041 38.6141 61.901 38.0914 62.7597C37.5898 63.5839 37.7481 64.6488 38.4678 65.2915C41.2673 67.791 44.1545 70.3797 46.9389 72.9652C47.6396 73.6158 48.7029 73.6795 49.4762 73.1171C51.7082 71.4938 53.6341 69.9733 55.5282 68.478L55.5391 68.4694C55.5568 68.4555 55.5742 68.4412 55.5913 68.4267C55.5967 68.4299 55.6021 68.433 55.6076 68.4361C56.3082 68.8365 57.3717 69.4025 58.5625 69.5722C58.986 69.6643 59.1065 69.7811 59.1434 69.8203C59.197 69.8773 59.3312 70.0544 59.4387 70.5918L59.4427 70.6116C59.6617 71.6518 59.9584 72.6717 60.2481 73.6289C60.3089 73.8299 60.3691 74.0271 60.4284 74.2216C60.6591 74.9772 60.8766 75.69 61.0657 76.4086L61.0703 76.4258C61.2551 77.1034 61.5822 77.9674 62.2984 78.6239C63.0757 79.3364 64.0334 79.5629 64.9712 79.5001C65.3568 79.5035 66.968 79.5262 68.5709 79.5494C69.4331 79.5619 70.2829 79.5744 70.9172 79.5838L71.6815 79.5951L71.8947 79.5983L71.9508 79.5991L71.9652 79.5993L71.9688 79.5994L71.9697 79.5994L71.97 79.5994C72.0999 79.6013 72.2298 79.5906 72.3576 79.5674C72.3984 79.5599 72.4397 79.5525 72.4814 79.5449C72.9433 79.4614 73.4593 79.3681 73.888 79.2362C74.3524 79.0933 74.9843 78.8303 75.4862 78.2417L78.9141 74.8138C79.3865 74.3414 79.5918 73.6643 79.4613 73.0091C79.3309 72.3539 78.8819 71.807 78.2646 71.5516L76.6868 70.8987C76.6969 70.5319 76.6992 70.1753 76.6997 69.8348C77.6878 69.5575 78.6524 69.1037 79.4525 68.5341C79.4663 68.5245 79.4789 68.5161 79.4905 68.5086C79.5709 68.554 79.6882 68.6316 79.8505 68.7613C79.8788 68.784 79.9078 68.806 79.9374 68.8271C81.0301 69.6076 82.1408 70.3303 83.2664 71.0558C83.4047 71.1449 83.5433 71.234 83.6821 71.3234C84.6823 71.9673 85.7 72.6223 86.7752 73.3535C87.501 73.847 88.4638 73.8097 89.1492 73.2613C89.2264 73.1997 89.3001 73.1408 89.371 73.0842C89.9577 72.6162 90.3487 72.3042 90.8141 71.8388C91.2428 71.4101 91.7525 70.8335 92.6509 69.8171C92.7606 69.6931 92.876 69.5625 92.9978 69.4248C93.6523 68.6849 93.6687 67.5781 93.0363 66.8192C92.8672 66.6163 92.6656 66.1872 92.5191 65.3613C92.3764 64.5565 92.3235 63.6183 92.2726 62.5425C92.2695 62.4778 92.2665 62.4125 92.2634 62.3465C92.2181 61.3779 92.1671 60.2884 92.0131 59.3092C91.8546 58.3017 91.5418 57.0587 90.7184 56.098C90.6981 56.0744 90.6795 56.0524 90.6625 56.0318C90.6836 55.9842 90.7108 55.9241 90.7418 55.8556C90.8568 55.6012 91.0248 55.2299 91.1323 54.9464C91.3088 54.4811 91.4871 53.8783 91.4992 53.1756C91.5119 53.0092 91.5373 52.9195 91.5508 52.8817C91.5755 52.8681 91.6232 52.8452 91.7044 52.8183C91.8499 52.77 92.0601 52.7226 92.3642 52.6821L92.3701 52.6813C94.6296 52.3732 96.8776 51.9639 99.3078 51.4576C99.689 51.3782 100.039 51.1892 100.314 50.9138L103.914 47.3138C104.434 46.7939 104.627 46.0308 104.416 45.3264C104.205 44.622 103.625 44.09 102.905 43.9411C102.836 43.9268 102.609 43.8525 102.188 43.618C101.79 43.3966 101.315 43.0877 100.77 42.6991C99.6781 41.9208 98.4381 40.9216 97.1405 39.876L97.1298 39.8673C95.8559 38.8408 94.5221 37.7662 93.3319 36.9254C92.735 36.5038 92.136 36.1135 91.5675 35.8072C91.0315 35.5185 90.3777 35.2236 89.6978 35.1219ZM76.7068 69.3652C76.7069 69.3653 76.7065 69.3679 76.7056 69.3727C76.7063 69.3674 76.7067 69.365 76.7068 69.3652ZM29.9059 47.3519C29.9058 47.3517 29.9055 47.3478 29.905 47.341C29.9057 47.3488 29.9059 47.3522 29.9059 47.3519ZM79.7134 44.3321C79.715 44.3459 79.7168 44.3598 79.7187 44.3736C80.849 52.5468 75.0114 59.0996 66.7998 59.0996C58.4314 59.0996 50.7653 52.2749 49.6851 43.8566C48.7283 35.633 54.5173 29.0996 62.6998 29.0996C71.0758 29.0996 78.7302 35.9305 79.7134 44.3321Z" fill="#2FC9F7" stroke="white" stroke-width="4" stroke-linejoin="round"/>
<path d="M94.2596 52.2377C94.2978 52.3117 94.3487 52.4004 94.4199 52.5171C95.4086 53.6751 96.408 54.9108 97.4283 56.1722C98.217 57.1474 99.0182 58.1379 99.8363 59.1196C100.478 59.8898 100.451 61.0163 99.7717 61.7541C97.4879 64.2365 95.2004 66.8222 93.0013 69.3213C92.335 70.0784 91.2092 70.221 90.3752 69.6539C89.3001 68.9228 88.2826 68.2678 87.2825 67.624C87.1435 67.5346 87.0048 67.4453 86.8664 67.3561C85.7408 66.6307 84.6301 65.908 83.5374 65.1275C83.5078 65.1063 83.4788 65.0844 83.4505 65.0617C83.2882 64.9319 83.1709 64.8544 83.0905 64.809C83.0789 64.8165 83.0663 64.8249 83.0525 64.8345C82.2518 65.4045 81.2864 65.8585 80.2976 66.1358C80.2827 67.2847 80.1949 68.4474 80.1121 69.5433C80.0684 70.1217 80.0262 70.6816 79.9968 71.2109C79.9956 71.2317 79.9941 71.2525 79.9923 71.2733L79.9857 71.3498C79.9417 71.8575 79.8962 72.3811 79.8119 72.8173C79.7188 73.2988 79.534 73.9416 79.0292 74.507C78.5284 75.068 77.9138 75.3264 77.4514 75.4769C77.0271 75.6149 76.509 75.7275 75.9991 75.8382L75.9247 75.8544C75.7851 75.8847 75.6427 75.9 75.4998 75.9C75.3446 75.9 73.9065 75.8787 72.3845 75.8561L71.9577 75.8498C70.39 75.8266 68.8481 75.8039 68.471 75.8005C67.5332 75.8632 66.5756 75.6368 65.7984 74.9243C65.0822 74.2678 64.7551 73.4038 64.5703 72.7262L64.5657 72.709C64.3766 71.9903 64.159 71.2775 63.9284 70.5218C63.8691 70.3274 63.8089 70.1302 63.7481 69.9293C63.4584 68.9721 63.1617 67.9522 62.9427 66.912L62.9387 66.8922C62.8312 66.3548 62.697 66.1777 62.6434 66.1207C62.6065 66.0815 62.486 65.9647 62.0625 65.8726C60.8717 65.7029 59.8082 65.1368 59.1076 64.7365C59.1021 64.7334 59.0967 64.7303 59.0913 64.7271C59.0742 64.7416 59.0568 64.7558 59.0391 64.7698C57.5804 65.9214 56.0593 67.0761 54.498 68.2614C54.0064 68.6346 53.5108 69.0108 53.0119 69.3909C52.238 69.9805 51.1519 69.9277 50.4389 69.2656C47.6545 66.6801 44.7673 64.0914 41.9678 61.5919C41.2481 60.9492 41.0897 59.8843 41.5914 59.0601C42.1141 58.2014 42.6309 57.3044 43.1471 56.4086C43.9017 55.099 44.6549 53.7917 45.423 52.61C45.4473 52.5725 45.473 52.5358 45.4998 52.5C45.5119 52.4839 45.5228 52.4689 45.5326 52.4551C45.514 52.4246 45.4906 52.3886 45.4614 52.3469C45.4527 52.3345 45.4441 52.322 45.4357 52.3094C44.7933 51.3457 44.2339 50.3495 43.7781 49.23C43.7466 49.1696 43.7206 49.1242 43.6999 49.0902C43.6933 49.0894 43.6863 49.0886 43.679 49.0878C42.7027 48.9793 41.7146 48.7923 40.8139 48.6219L40.7781 48.6151C39.8383 48.4374 38.9897 48.2779 38.179 48.1878L38.1662 48.1863L38.1662 48.1863C37.2639 48.0802 36.0556 47.8642 35.0683 47.1295C33.9457 46.294 33.4212 45.0461 33.4005 43.5905M94.2596 52.2377L47.0998 51.2C46.4998 50.3 45.9998 49.4 45.5998 48.4C45.1998 47.6 44.7998 47.2 43.8998 47.1C42.9998 47 42.0748 46.825 41.1498 46.65C40.2248 46.475 39.2998 46.3 38.3998 46.2C36.6998 46 35.3998 45.5 35.3998 43.5C35.3998 43.4 34.6998 36.6 34.5998 36.2C34.3998 35 34.9998 34.7 35.9998 34.5C37.0498 34.35 38.0998 34.15 39.1498 33.95C40.1998 33.75 41.2498 33.55 42.2998 33.4C43.0998 33.3 43.4998 33 43.5998 32.2C43.7998 31.2 44.0998 30.1 44.4998 29.1M94.2596 52.2377C94.2602 52.2363 94.2608 52.2349 94.2614 52.2335C94.4316 51.8356 94.8209 50.925 95.3204 50.0821C95.5846 49.6363 95.8349 49.2871 96.0464 49.0635C96.0917 49.0157 96.1283 48.9808 96.1562 48.956C98.3532 48.651 100.544 48.2503 102.908 47.758C103.919 47.5473 104.603 46.6017 104.487 45.5756L103.788 39.3839L103.787 39.3756L103.288 34.7839C103.192 33.8967 102.519 33.1807 101.64 33.0291C100.9 32.9016 100.169 32.7732 99.4439 32.6459C97.358 32.2797 95.3232 31.9225 93.2977 31.6223C92.7724 30.473 92.1528 29.3371 91.573 28.2741L91.5617 28.2534C92.2612 27.1189 92.9705 25.8917 93.7013 24.6273C94.2898 23.609 94.8922 22.5666 95.5148 21.529C96.0155 20.6945 95.8429 19.6206 95.1057 18.9852C93.6644 17.7427 92.2218 16.4742 90.7705 15.1981L90.7666 15.1946C89.3192 13.9219 87.8631 12.6415 86.4057 11.3852C85.6859 10.7647 84.6289 10.7364 83.8769 11.3174C83.1909 11.8475 82.5178 12.3631 81.8543 12.8714C80.4725 13.9297 79.1324 14.9562 77.8037 16.0159C77.8005 16.0143 77.7974 16.0127 77.7943 16.0111C76.9384 15.5832 76.0674 15.575 75.5998 15.575C75.4779 15.575 75.3853 15.576 75.3063 15.5768C75.1876 15.5781 75.0994 15.579 74.9882 15.5758C74.9158 15.5737 74.8652 15.5701 74.8293 15.5661C74.7987 15.5627 74.7852 15.5597 74.7843 15.5596L94.2596 52.2377ZM33.4005 43.5905C33.4001 43.5604 33.3998 43.5302 33.3998 43.5C33.3998 43.5597 33.4034 43.6178 33.405 43.6414C33.4042 43.6318 33.4028 43.6155 33.4006 43.5911C33.4005 43.5909 33.4005 43.5907 33.4005 43.5905ZM33.4005 43.5905C33.3958 43.5405 33.3887 43.4666 33.3792 43.3701C33.3602 43.1772 33.3327 42.9044 33.2993 42.5767C33.2323 41.9216 33.142 41.0525 33.0486 40.1741C32.955 39.2948 32.8588 38.4104 32.78 37.723C32.7405 37.3785 32.7062 37.0897 32.6791 36.8782C32.6559 36.6965 32.6448 36.6298 32.6458 36.6296C32.6465 36.6295 32.651 36.651 32.6596 36.6851C32.6466 36.6334 32.6358 36.5813 32.6271 36.5288C32.4718 35.5974 32.5467 34.4497 33.4356 33.5608C34.1563 32.8401 35.1202 32.6363 35.6076 32.5388C35.6439 32.5316 35.6804 32.5253 35.717 32.5201C36.7134 32.3778 37.7178 32.1868 38.7756 31.9853L38.7972 31.9812C39.7361 31.8024 40.7181 31.6153 41.71 31.4653M41.71 31.4653C41.685 31.5807 41.6612 31.6949 41.6387 31.8078C41.6291 31.8555 41.6213 31.9036 41.6153 31.9519C41.6128 31.9715 41.6109 31.9804 41.6109 31.9804C41.6109 31.9803 41.613 31.9704 41.6188 31.9524C41.6239 31.9369 41.6318 31.9155 41.6436 31.8894C41.654 31.8662 41.6665 31.8417 41.6811 31.8162C41.7277 31.7351 41.7959 31.645 41.8891 31.5628C41.9374 31.5202 41.9831 31.4877 42.0232 31.4632C42.0344 31.4563 42.0451 31.45 42.0554 31.4443C42.106 31.4163 42.1438 31.4025 42.1599 31.3974M41.71 31.4653C41.8123 31.4498 41.9146 31.4347 42.017 31.4201C42.0286 31.4184 42.0402 31.4169 42.0518 31.4154C42.1109 31.4081 42.1452 31.4009 42.1599 31.3974M41.71 31.4653C41.9209 30.4915 42.2187 29.4343 42.6112 28.437M42.1599 31.3974C42.1658 31.3959 42.1685 31.395 42.1684 31.395C42.1683 31.3949 42.1653 31.3956 42.1599 31.3974ZM42.6112 28.437C42.6419 28.474 42.6649 28.5039 42.682 28.5275C42.7041 28.558 42.7137 28.5745 42.7159 28.5783L42.7162 28.5789C42.7158 28.5781 42.7103 28.5678 42.703 28.5487C42.694 28.5254 42.6839 28.4935 42.6762 28.4547C42.6734 28.4408 42.6711 28.4271 42.6693 28.4135L44.4998 29.1M42.6112 28.437C42.6113 28.4367 42.6115 28.4364 42.6116 28.4361C42.6065 28.4305 42.6014 28.4249 42.5964 28.4192M42.6112 28.437C42.6065 28.4313 42.6015 28.4253 42.5964 28.4192M44.4998 29.1L42.6896 28.3759M44.4998 29.1C44.7998 28.3 44.6998 27.8 44.0998 27.1M42.6896 28.3759L38.4998 20.4C39.1549 21.186 39.7777 21.9506 40.3859 22.6972C41.6348 24.2303 42.8221 25.6878 44.0998 27.1M42.6896 28.3759L44.0998 27.1M42.6896 28.3759L52.6998 17.7L53.4453 16.2091L53.3709 16.085C53.435 16.0465 53.4993 16.0088 53.5639 15.9718L53.5943 15.9111C53.6089 15.9185 53.6226 15.9251 53.6353 15.9312C53.6396 15.9288 53.644 15.9263 53.6483 15.9239M44.0998 27.1L42.6637 28.331C42.6637 28.3041 42.6657 28.2851 42.667 28.2758C42.6674 28.2723 42.6678 28.2705 42.6678 28.2705C42.6678 28.2705 42.6666 28.2768 42.6629 28.2903C42.6594 28.3035 42.6539 28.322 42.6455 28.3466L42.5813 28.4016C42.5865 28.4076 42.5915 28.4135 42.5964 28.4192M42.5964 28.4192C41.2916 26.9756 40.0549 25.4577 38.793 23.9089C38.1922 23.1715 37.5857 22.4271 36.9634 21.6804C36.331 20.9215 36.3474 19.8147 37.0019 19.0749C38.1407 17.7875 39.2251 16.5843 40.2923 15.4004C41.4656 14.0987 42.6179 12.8202 43.7984 11.4787C44.4601 10.7269 45.5759 10.5803 46.4092 11.1359C47.4144 11.806 48.4005 12.4487 49.3644 13.077C50.8484 14.0443 52.2799 14.9775 53.6483 15.9239M53.6483 15.9239C53.6671 15.9369 53.6859 15.9498 53.7046 15.9628C53.7336 15.9753 53.7538 15.9827 53.7667 15.987C53.774 15.9894 53.7774 15.9903 53.7772 15.9903C53.7767 15.9902 53.7616 15.9862 53.7345 15.9836L57.006 14.4902C57.0394 14.4757 57.0787 14.4594 57.1226 14.443C57.2718 14.387 57.5472 14.3 57.8998 14.3V15.0696V15.1V16.3L57.5998 15.55L57.4198 15.1L57.399 15.0478L57.1612 14.4533C57.1389 14.4588 57.118 14.4644 57.0986 14.47C57.0542 14.4931 56.9981 14.5277 56.9373 14.5781C56.9355 14.5796 56.9337 14.5811 56.9319 14.5827C56.8349 14.6643 56.7537 14.7637 56.6942 14.8695C56.6633 14.9243 56.6423 14.9736 56.628 15.0143C56.6153 15.0502 56.608 15.0795 56.6038 15.1C56.6012 15.1126 56.5998 15.122 56.5992 15.1275M53.6483 15.9239C54.6505 15.3606 55.6999 14.9639 56.6193 14.6285M56.6193 14.6285C56.6132 14.7569 56.6073 14.8852 56.6017 15.0131C56.6005 15.0421 56.5998 15.071 56.5998 15.1C56.5998 15.1131 56.5995 15.1222 56.5992 15.1275M56.6193 14.6285C56.6692 13.5825 56.7368 12.5232 56.8032 11.483L56.8039 11.4726C56.8783 10.3076 56.951 9.16629 57 8.05254M56.6193 14.6285L57 8.05254M56.5992 15.1275C56.5987 15.1313 56.5986 15.1334 56.5986 15.1334C56.5987 15.1334 56.5989 15.1315 56.5992 15.1275ZM57 8.05254C56.9999 8.06887 56.9998 8.0847 56.9998 8.1H58.9998L57.0017 8.01313C57.0012 8.02626 57.0006 8.0394 57 8.05254ZM57 8.05254C57.0033 7.59939 57.0602 6.76054 57.6381 6.03811C58.3249 5.17965 59.2989 5 59.9998 5H60.0174H60.035H60.0526H60.0702H60.0877H60.1053H60.1229H60.1405H60.158H60.1756H60.1932H60.2108H60.2284H60.2459H60.2635H60.2811H60.2987H60.3162H60.3338H60.3514H60.369H60.3866H60.4041H60.4217H60.4393H60.4569H60.4745H60.492H60.5096H60.5272H60.5448H60.5623H60.5799H60.5975H60.6151H60.6327H60.6502H60.6678H60.6854H60.703H60.7205H60.7381H60.7557H60.7733H60.7909H60.8084H60.826H60.8436H60.8612H60.8787H60.8963H60.9139H60.9315H60.9491H60.9666H60.9842H61.0018H61.0194H61.037H61.0545H61.0721H61.0897H61.1073H61.1248H61.1424H61.16H61.1776H61.1952H61.2127H61.2303H61.2479H61.2655H61.283H61.3006H61.3182H61.3358H61.3534H61.3709H61.3885H61.4061H61.4237H61.4412H61.4588H61.4764H61.494H61.5116H61.5291H61.5467H61.5643H61.5819H61.5995H61.617H61.6346H61.6522H61.6698H61.6873H61.7049H61.7225H61.7401H61.7577H61.7752H61.7928H61.8104H61.828H61.8455H61.8631H61.8807H61.8983H61.9159H61.9334H61.951H61.9686H61.9862H62.0037H62.0213H62.0389H62.0565H62.0741H62.0916H62.1092H62.1268H62.1444H62.162H62.1795H62.1971H62.2147H62.2323H62.2498H62.2674H62.285H62.3026H62.3202H62.3377H62.3553H62.3729H62.3905H62.408H62.4256H62.4432H62.4608H62.4784H62.4959H62.5135H62.5311H62.5487H62.5662H62.5838H62.6014H62.619H62.6366H62.6541H62.6717H62.6893H62.7069H62.7245H62.742H62.7596H62.7772H62.7948H62.8123H62.8299H62.8475H62.8651H62.8827H62.9002H62.9178H62.9354H62.953H62.9705H62.9881H63.0057H63.0233H63.0409H63.0584H63.076H63.0936H63.1112H63.1287H63.1463H63.1639H63.1815H63.1991H63.2166H63.2342H63.2518H63.2694H63.287H63.3045H63.3221H63.3397H63.3573H63.3748H63.3924H63.41H63.4276H63.4452H63.4627H63.4803H63.4979H63.5155H63.533H63.5506H63.5682H63.5858H63.6034H63.6209H63.6385H63.6561H63.6737H63.6912H63.7088H63.7264H63.744H63.7616H63.7791H63.7967H63.8143H63.8319H63.8495H63.867H63.8846H63.9022H63.9198H63.9373H63.9549H63.9725H63.9901H64.0077H64.0252H64.0428H64.0604H64.078H64.0955H64.1131H64.1307H64.1483H64.1659H64.1834H64.201H64.2186H64.2362H64.2537H64.2713H64.2889H64.3065H64.3241H64.3416H64.3592H64.3768H64.3944H64.412H64.4295H64.4471H64.4647H64.4823H64.4998H64.5174H64.535H64.5526H64.5702H64.5877H64.6053H64.6229H64.6405H64.658H64.6756H64.6932H64.7108H64.7284H64.7459H64.7635H64.7811H64.7987H64.8162H64.8338H64.8514H64.869H64.8866H64.9041H64.9217H64.9393H64.9569H64.9745H64.992H65.0096H65.0272H65.0448H65.0623H65.0799H65.0975H65.1151H65.1327H65.1502H65.1678H65.1854H65.203H65.2205H65.2381H65.2557H65.2733H65.2909H65.3084H65.326H65.3436H65.3612H65.3787H65.3963H65.4139H65.4315H65.4491H65.4666H65.4842H65.5018H65.5194H65.537H65.5545H65.5721H65.5897H65.6073H65.6248H65.6424H65.66H65.6776H65.6952H65.7127H65.7303H65.7479H65.7655H65.783H65.8006H65.8182H65.8358H65.8534H65.8709H65.8885H65.9061H65.9237H65.9412H65.9588H65.9764H65.994H66.0116H66.0291H66.0467H66.0643H66.0819H66.0995H66.117H66.1346H66.1522H66.1698H66.1873H66.2049H66.2225H66.2401H66.2577H66.2752H66.2928H66.3104H66.328H66.3455H66.3631H66.3807H66.3983H66.4159H66.4334H66.451H66.4686H66.4862H66.5037H66.5213H66.5389H66.5565H66.5741H66.5916H66.6092H66.6268H66.6444H66.662H66.6795H66.6971H66.7147H66.7323H66.7498H66.7674H66.785H66.8026H66.8202H66.8377H66.8553H66.8729H66.8905H66.908H66.9256H66.9432H66.9608H66.9784H66.9959H67.0135H67.0311H67.0487H67.0662H67.0838H67.1014H67.119H67.1366H67.1541H67.1717H67.1893H67.2069H67.2245H67.242H67.2596H67.2772H67.2948H67.3123H67.3299H67.3475H67.3651H67.3827H67.4002H67.4178H67.4354H67.453H67.4705H67.4881H67.5057H67.5233H67.5409H67.5584H67.576H67.5936H67.6112H67.6287H67.6463H67.6639H67.6815H67.6991H67.7166H67.7342H67.7518H67.7694H67.787H67.8045H67.8221H67.8397H67.8573H67.8748H67.8924H67.91H67.9276H67.9452H67.9627H67.9803H67.9979H68.0155H68.033H68.0506H68.0682H68.0858H68.1034H68.1209H68.1385H68.1561H68.1737H68.1912H68.2088H68.2264H68.244H68.2616H68.2791H68.2967H68.3143H68.3319H68.3495H68.367H68.3846H68.4022H68.4198H68.4373H68.4549H68.4725H68.4901H68.5077H68.5252H68.5428H68.5604H68.578H68.5955H68.6131H68.6307H68.6483H68.6659H68.6834H68.701H68.7186H68.7362H68.7537H68.7713H68.7889H68.8065H68.8241H68.8416H68.8592H68.8768H68.8944H68.912H68.9295H68.9471H68.9647H68.9823H68.9998C69.6318 5 70.4195 5.13875 71.0972 5.72612C71.7228 6.26827 71.985 6.96793 72.1229 7.45056C72.129 7.47192 72.1347 7.49338 72.1401 7.51493C72.3788 8.4696 72.6672 9.45583 72.9693 10.4882L72.9749 10.5074C73.268 11.5086 73.574 12.5541 73.832 13.5824M57 8.05254L74.6684 15.5343C74.6656 15.5337 74.6626 15.5334 74.6592 15.533C74.6233 15.5291 74.5519 15.5212 74.403 15.25C74.2037 14.887 74.0724 14.4262 73.8714 13.7205C73.8585 13.6755 73.8454 13.6294 73.832 13.5824M73.832 13.5824C73.829 13.5718 73.8259 13.5612 73.8229 13.5506L71.8998 14.1L73.8401 13.6149C73.8374 13.6041 73.8347 13.5932 73.832 13.5824ZM57.1595 14.4491C57.1477 14.4517 57.1359 14.4545 57.1242 14.4574C57.1365 14.4516 57.1475 14.4469 57.1571 14.443L57.1595 14.4491ZM96.2225 48.9035C96.2225 48.9036 96.2203 48.9051 96.2161 48.9076C96.2204 48.9046 96.2226 48.9033 96.2225 48.9035ZM80.3068 65.6656C80.3069 65.6656 80.3065 65.6683 80.3055 65.6733C80.3062 65.668 80.3067 65.6655 80.3068 65.6656ZM78.4856 50.4858C78.4187 50.5527 78.3566 50.6243 78.2998 50.7C78.2 50.8332 78.0401 50.9698 77.5998 51.3C77.5889 51.3082 77.578 51.3165 77.5672 51.325C75.6248 52.8451 73.0604 53.8 70.0998 53.8C62.6323 53.8 55.7796 47.681 54.8882 40.1835C54.7086 38.3703 54.8151 36.6788 55.2972 35.2325C55.3266 35.1444 55.3557 35.0718 55.3756 35.0253C55.3854 35.0026 55.3923 34.9876 55.395 34.9817C55.3952 34.9814 55.3953 34.9811 55.3954 34.9808C55.4349 34.9004 55.4689 34.8174 55.4972 34.7325C56.2647 32.43 57.7058 30.4887 59.642 29.1418C59.7152 29.0909 59.7849 29.0351 59.8507 28.9749C59.8563 28.9707 59.8646 28.9646 59.8758 28.9569C59.9324 28.9177 60.0653 28.8336 60.2877 28.7383C60.3423 28.7149 60.3958 28.6891 60.448 28.6609C61.5674 28.0582 62.7792 27.6237 64.0921 27.3612C64.0994 27.3597 64.1067 27.3582 64.1141 27.3566C64.1206 27.3552 64.1272 27.3538 64.1337 27.3524C64.887 27.185 65.6413 27.1 66.4998 27.1C73.1599 27.1 79.3141 31.9633 81.1798 38.36C81.1869 38.3843 81.1945 38.4084 81.2025 38.4325C81.4251 39.1003 81.5089 39.7921 81.6121 40.7209C81.62 40.7924 81.6318 40.8636 81.6475 40.9339C81.9564 42.3242 81.8162 43.7886 81.4596 45.2149C80.9475 47.2631 79.9294 49.042 78.4856 50.4858ZM55.3897 34.9924C55.3899 34.9921 55.39 34.9917 55.3902 34.9914L55.39 34.9918L55.3897 34.9924ZM55.3891 34.9936L55.389 34.9937L55.3891 34.9936Z" fill="#5AE0FF" stroke="white" stroke-width="4" stroke-linejoin="round"/>
<path d="M81.5655 53.1441C82.2254 52.314 82.1226 51.1132 81.3314 50.4073C80.5402 49.7013 79.3355 49.7356 78.5857 50.4854C78.1732 50.8979 77.9689 51.0978 77.6999 51.2996C77.6889 51.3078 77.6781 51.3162 77.6673 51.3246C75.7249 52.8447 73.1604 53.7996 70.1999 53.7996C62.7324 53.7996 55.8797 47.6807 54.9882 40.1833C54.8168 38.4459 54.9919 36.7012 55.4269 35.1349C55.7197 34.081 55.1115 32.9874 54.0617 32.6801C53.0119 32.3729 51.91 32.966 51.5883 34.0114C51.1446 35.4536 50.0939 39.6276 51.0528 44.3246C52.0388 49.1546 55.1226 54.3579 62.5975 57.6316C67.0981 59.6071 70.9921 59.6735 74.2604 58.5542C77.4776 57.4524 79.8698 55.2774 81.5655 53.1441Z" fill="white" stroke="white" stroke-width="4" stroke-linejoin="round"/>
<path d="M101.937 41.4953C102.488 41.4576 102.999 41.1933 103.349 40.7652C103.699 40.3372 103.856 39.7835 103.782 39.2357L103.182 34.7357C103.067 33.8689 102.402 33.1777 101.54 33.0291C100.801 32.9016 100.069 32.7732 99.344 32.6459C97.2582 32.2797 95.2234 31.9225 93.198 31.6223C93.145 31.5053 93.0902 31.3828 93.0333 31.2558C92.6322 30.3597 92.1314 29.241 91.4743 28.2523C91.5202 28.1763 91.578 28.0705 91.6322 27.9387C92.3826 26.719 93.1488 25.4691 93.9168 24.1267C94.4079 23.3409 94.9271 22.5095 95.4483 21.5713C95.9222 20.7183 95.7114 19.6478 94.9494 19.0383C94.746 18.8756 94.5584 18.7093 94.3287 18.5052L94.3157 18.4936C94.1071 18.3082 93.8615 18.0899 93.5854 17.8672C91.1935 15.7742 88.8212 13.698 86.4514 11.5257C85.742 10.8754 84.6699 10.8225 83.9 11.4C83.1476 11.9643 82.4618 12.4935 81.799 13.0048C80.9755 13.6402 80.1876 14.2481 79.3519 14.8618C78.7592 15.2595 78.2565 15.6543 77.8104 16.0105C77.5132 15.8348 77.1522 15.6623 76.882 15.5331C76.8398 15.513 76.7999 15.4939 76.7628 15.476C76.3013 15.2539 75.8077 15.0132 75.3341 14.741C74.8521 14.464 74.4666 14.1966 74.2036 13.9501C74.0177 13.7759 73.9613 13.676 73.9501 13.6561C73.942 13.6206 73.933 13.5855 73.923 13.5506C73.8495 13.2933 73.7926 13.055 73.727 12.7802C73.7165 12.7364 73.7058 12.6917 73.6948 12.6458C73.626 12.359 73.5441 12.0258 73.4329 11.6766C73.2143 10.6878 72.8892 9.63539 72.5966 8.68831C72.4604 8.24718 72.3311 7.8289 72.223 7.45056C72.0852 6.96793 71.8229 6.26827 71.1974 5.72612C70.5196 5.13875 69.7319 5 69.1 5H65.9H62.1H62.0959H62.0918H62.0877H62.0836H62.0795H62.0754H62.0713H62.0673H62.0632H62.0591H62.055H62.0509H62.0469H62.0428H62.0387H62.0347H62.0306H62.0265H62.0225H62.0184H62.0144H62.0103H62.0063H62.0022H61.9982H61.9941H61.9901H61.986H61.982H61.9779H61.9739H61.9699H61.9658H61.9618H61.9578H61.9538H61.9497H61.9457H61.9417H61.9377H61.9337H61.9296H61.9256H61.9216H61.9176H61.9136H61.9096H61.9056H61.9016H61.8976H61.8936H61.8896H61.8856H61.8816H61.8776H61.8736H61.8697H61.8657H61.8617H61.8577H61.8537H61.8497H61.8458H61.8418H61.8378H61.8339H61.8299H61.8259H61.822H61.818H61.814H61.8101H61.8061H61.8021H61.7982H61.7942H61.7903H61.7863H61.7824H61.7784H61.7745H61.7705H61.7666H61.7627H61.7587H61.7548H61.7508H61.7469H61.743H61.739H61.7351H61.7312H61.7273H61.7233H61.7194H61.7155H61.7116H61.7076H61.7037H61.6998H61.6959H61.692H61.6881H61.6841H61.6802H61.6763H61.6724H61.6685H61.6646H61.6607H61.6568H61.6529H61.649H61.6451H61.6412H61.6373H61.6334H61.6295H61.6256H61.6217H61.6178H61.6139H61.61H61.6062H61.6023H61.5984H61.5945H61.5906H61.5867H61.5829H61.579H61.5751H61.5712H61.5674H61.5635H61.5596H61.5557H61.5519H61.548H61.5441H61.5403H61.5364H61.5325H61.5287H61.5248H61.5209H61.5171H61.5132H61.5093H61.5055H61.5016H61.4978H61.4939H61.4901H61.4862H61.4823H61.4785H61.4746H61.4708H61.4669H61.4631H61.4592H61.4554H61.4516H61.4477H61.4439H61.44H61.4362H61.4323H61.4285H61.4246H61.4208H61.417H61.4131H61.4093H61.4055H61.4016H61.3978H61.3939H61.3901H61.3863H61.3824H61.3786H61.3748H61.3709H61.3671H61.3633H61.3595H61.3556H61.3518H61.348H61.3441H61.3403H61.3365H61.3327H61.3288H61.325H61.3212H61.3174H61.3135H61.3097H61.3059H61.3021H61.2983H61.2944H61.2906H61.2868H61.283H61.2792H61.2753H61.2715H61.2677H61.2639H61.2601H61.2563H61.2524H61.2486H61.2448H61.241H61.2372H61.2334H61.2296H61.2257H61.2219H61.2181H61.2143H61.2105H61.2067H61.2029H61.199H61.1952H61.1914H61.1876H61.1838H61.18H61.1762H61.1724H61.1686H61.1648H61.1609H61.1571H61.1533H61.1495H61.1457H61.1419H61.1381H61.1343H61.1305H61.1267H61.1229H61.119H61.1152H61.1114H61.1076H61.1038H61.1H61.0962H61.0924H61.0886H61.0848H61.081H61.0771H61.0733H61.0695H61.0657H61.0619H61.0581H61.0543H61.0505H61.0467H61.0429H61.0391H61.0352H61.0314H61.0276H61.0238H61.02H61.0162H61.0124H61.0086H61.0048H61.001H60.9971H60.9933H60.9895H60.9857H60.9819H60.9781H60.9743H60.9704H60.9666H60.9628H60.959H60.9552H60.9514H60.9476H60.9437H60.9399H60.9361H60.9323H60.9285H60.9247H60.9208H60.917H60.9132H60.9094H60.9056H60.9017H60.8979H60.8941H60.8903H60.8865H60.8826H60.8788H60.875H60.8712H60.8673H60.8635H60.8597H60.8559H60.852H60.8482H60.8444H60.8405H60.8367H60.8329H60.8291H60.8252H60.8214H60.8176H60.8137H60.8099H60.8061H60.8022H60.7984H60.7945H60.7907H60.7869H60.783H60.7792H60.7754H60.7715H60.7677H60.7638H60.76H60.7561H60.7523H60.7484H60.7446H60.7408H60.7369H60.7331H60.7292H60.7254H60.7215H60.7177H60.7138H60.7099H60.7061H60.7022H60.6984H60.6945H60.6907H60.6868H60.6829H60.6791H60.6752H60.6713H60.6675H60.6636H60.6597H60.6559H60.652H60.6481H60.6443H60.6404H60.6365H60.6326H60.6288H60.6249H60.621H60.6171H60.6133H60.6094H60.6055H60.6016H60.5977H60.5938H60.59H60.5861H60.5822H60.5783H60.5744H60.5705H60.5666H60.5627H60.5588H60.5549H60.551H60.5471H60.5432H60.5393H60.5354H60.5315H60.5276H60.5237H60.5198H60.5159H60.5119H60.508H60.5041H60.5002H60.4963H60.4924H60.4884H60.4845H60.4806H60.4767H60.4727H60.4688H60.4649H60.461H60.457H60.4531H60.4492H60.4452H60.4413H60.4373H60.4334H60.4295H60.4255H60.4216H60.4176H60.4137H60.4097H60.4058H60.4018H60.3979H60.3939H60.3899H60.386H60.382H60.378H60.3741H60.3701H60.3661H60.3622H60.3582H60.3542H60.3503H60.3463H60.3423H60.3383H60.3343H60.3303H60.3264H60.3224H60.3184H60.3144H60.3104H60.3064H60.3024H60.2984H60.2944H60.2904H60.2864H60.2824H60.2784H60.2744H60.2704H60.2663H60.2623H60.2583H60.2543H60.2503H60.2462H60.2422H60.2382H60.2342H60.2301H60.2261H60.2221H60.218H60.214H60.2099H60.2059H60.2018H60.1978H60.1937H60.1897H60.1856H60.1816H60.1775H60.1735H60.1694H60.1653H60.1613H60.1572H60.1531H60.1491H60.145H60.1409H60.1368H60.1327H60.1287H60.1246H60.1205H60.1164H60.1123H60.1082H60.1041H60.1C59.399 5 58.425 5.17965 57.7383 6.03811C57.1603 6.76054 57.1034 7.59937 57.1002 8.05252C57.0512 9.16628 56.9784 10.3076 56.9041 11.4726L56.9034 11.483C56.834 12.5699 56.7633 13.6776 56.7128 14.7692C56.4591 14.9826 56.2598 15.2579 56.1369 15.5729C55.9357 16.0882 55.957 16.6638 56.1957 17.1629C57.332 19.5388 59.2195 23.1116 62.2783 26.6979C62.7588 27.2612 63.5111 27.513 64.2339 27.3524C64.9871 27.185 65.7415 27.1 66.6 27.1C73.2601 27.1 79.4143 31.9633 81.28 38.36C81.4719 39.0179 81.9872 39.5317 82.6457 39.7216C88.0937 41.2932 94.4298 42.0095 101.937 41.4953ZM56.6988 15.1334C56.6987 15.1333 56.6989 15.1313 56.6993 15.1275C56.6991 15.1315 56.6989 15.1335 56.6988 15.1334Z" fill="#8DEFFF" stroke="white" stroke-width="4" stroke-linejoin="round"/>
<path d="M91.5485 24.8913C90.668 24.588 90.1134 23.7172 90.2108 22.791C90.2108 22.791 90.2108 22.791 90.2108 22.7908C90.2105 22.7813 90.1989 22.3974 89.2668 21.3672C88.6894 20.7291 88.0066 20.095 87.2118 19.3569C86.7796 18.9555 86.3143 18.5234 85.8148 18.0432L91.5485 24.8913ZM91.5485 24.8913C92.429 25.1946 93.4023 24.8501 93.8959 24.0604M91.5485 24.8913L93.8959 24.0604M93.8959 24.0604C94.3968 23.2588 94.8824 22.4822 95.464 21.6098C96.0394 20.7466 95.8593 19.5867 95.0492 18.9387C94.8459 18.776 94.6583 18.6097 94.4286 18.4056L94.4155 18.394C94.2069 18.2085 93.9613 17.9902 93.6852 17.7675M93.8959 24.0604L93.6852 17.7675M93.6852 17.7675C91.2933 15.6746 88.9211 13.5984 86.5513 11.4261C85.8418 10.7757 84.7698 10.7229 83.9999 11.3004C83.2475 11.8647 82.5616 12.3938 81.8989 12.9052C81.064 13.5494 80.2657 14.1653 79.4171 14.7876C78.5405 15.4305 78.3379 16.6559 78.961 17.5467C79.5841 18.4376 80.8047 18.6675 81.7093 18.0645C81.6988 18.0715 81.7093 18.0663 81.7383 18.052C81.8924 17.976 82.5688 17.6427 83.4159 17.4961C84.3896 17.3276 85.206 17.4589 85.8145 18.0429L93.6852 17.7675Z" fill="white" stroke="white" stroke-width="4" stroke-linejoin="round"/>
<path d="M69.7637 12.9929C70.1817 13.9609 71.2794 14.4381 72.2724 14.0835C73.2654 13.729 73.8126 12.6644 73.5229 11.6506C73.3139 10.919 73.0805 10.193 72.8587 9.5028L72.8539 9.48798C72.6272 8.78256 72.4124 8.1138 72.2229 7.45056C72.085 6.96793 71.8228 6.26827 71.1972 5.72612C70.5195 5.13875 69.7318 5 69.0999 5H69.0934H69.087H69.0805H69.0741H69.0677H69.0612H69.0548H69.0484H69.0419H69.0355H69.0291H69.0227H69.0163H69.0098H69.0034H68.997H68.9906H68.9842H68.9778H68.9714H68.965H68.9586H68.9522H68.9458H68.9394H68.933H68.9266H68.9202H68.9139H68.9075H68.9011H68.8947H68.8883H68.882H68.8756H68.8692H68.8629H68.8565H68.8501H68.8438H68.8374H68.8311H68.8247H68.8183H68.812H68.8056H68.7993H68.7929H68.7866H68.7803H68.7739H68.7676H68.7612H68.7549H68.7486H68.7422H68.7359H68.7296H68.7233H68.7169H68.7106H68.7043H68.698H68.6916H68.6853H68.679H68.6727H68.6664H68.6601H68.6538H68.6475H68.6412H68.6349H68.6286H68.6223H68.616H68.6097H68.6034H68.5971H68.5908H68.5845H68.5782H68.5719H68.5656H68.5594H68.5531H68.5468H68.5405H68.5342H68.528H68.5217H68.5154H68.5091H68.5029H68.4966H68.4903H68.4841H68.4778H68.4715H68.4653H68.459H68.4528H68.4465H68.4402H68.434H68.4277H68.4215H68.4152H68.409H68.4027H68.3965H68.3902H68.384H68.3778H68.3715H68.3653H68.359H68.3528H68.3466H68.3403H68.3341H68.3279H68.3216H68.3154H68.3092H68.3029H68.2967H68.2905H68.2843H68.278H68.2718H68.2656H68.2594H68.2531H68.2469H68.2407H68.2345H68.2283H68.2221H68.2158H68.2096H68.2034H68.1972H68.191H68.1848H68.1786H68.1724H68.1662H68.16H68.1538H68.1476H68.1414H68.1352H68.129H68.1228H68.1166H68.1104H68.1042H68.098H68.0918H68.0856H68.0794H68.0732H68.067H68.0608H68.0546H68.0485H68.0423H68.0361H68.0299H68.0237H68.0175H68.0113H68.0052H67.999H67.9928H67.9866H67.9804H67.9743H67.9681H67.9619H67.9557H67.9496H67.9434H67.9372H67.931H67.9249H67.9187H67.9125H67.9063H67.9002H67.894H67.8878H67.8817H67.8755H67.8693H67.8631H67.857H67.8508H67.8446H67.8385H67.8323H67.8261H67.82H67.8138H67.8077H67.8015H67.7953H67.7892H67.783H67.7768H67.7707H67.7645H67.7584H67.7522H67.746H67.7399H67.7337H67.7276H67.7214H67.7152H67.7091H67.7029H67.6968H67.6906H67.6845H67.6783H67.6722H67.666H67.6598H67.6537H67.6475H67.6414H67.6352H67.6291H67.6229H67.6168H67.6106H67.6045H67.5983H67.5921H67.586H67.5798H67.5737H67.5675H67.5614H67.5552H67.5491H67.5429H67.5368H67.5306H67.5245H67.5183H67.5122H67.506H67.4999H67.4937H67.4875H67.4814H67.4752H67.4691H67.4629H67.4568H67.4506H67.4445H67.4383H67.4322H67.426H67.4199H67.4137H67.4076H67.4014H67.3953H67.3891H67.3829H67.3768H67.3706H67.3645H67.3583H67.3522H67.346H67.3399H67.3337H67.3276H67.3214H67.3152H67.3091H67.3029H67.2968H67.2906H67.2845H67.2783H67.2721H67.266H67.2598H67.2537H67.2475H67.2413H67.2352H67.229H67.2229H67.2167H67.2105H67.2044H67.1982H67.192H67.1859H67.1797H67.1736H67.1674H67.1612H67.1551H67.1489H67.1427H67.1366H67.1304H67.1242H67.1181H67.1119H67.1057H67.0995H67.0934H67.0872H67.081H67.0749H67.0687H67.0625H67.0563H67.0502H67.044H67.0378H67.0316H67.0254H67.0193H67.0131H67.0069H67.0007H66.9945H66.9884H66.9822H66.976H66.9698H66.9636H66.9574H66.9512H66.9451H66.9389H66.9327H66.9265H66.9203H66.9141H66.9079H66.9017H66.8955H66.8893H66.8831H66.8769H66.8707H66.8645H66.8583H66.8521H66.8459H66.8397H66.8335H66.8273H66.8211H66.8149H66.8087H66.8025H66.7963H66.7901H66.7839H66.7776H66.7714H66.7652H66.759H66.7528H66.7466H66.7403H66.7341H66.7279H66.7217H66.7155H66.7092H66.703H66.6968H66.6905H66.6843H66.6781H66.6719H66.6656H66.6594H66.6532H66.6469H66.6407H66.6344H66.6282H66.622H66.6157H66.6095H66.6032H66.597H66.5907H66.5845H66.5782H66.572H66.5657H66.5595H66.5532H66.547H66.5407H66.5344H66.5282H66.5219H66.5156H66.5094H66.5031H66.4968H66.4906H66.4843H66.478H66.4717H66.4655H66.4592H66.4529H66.4466H66.4404H66.4341H66.4278H66.4215H66.4152H66.4089H66.4026H66.3963H66.39H66.3837H66.3774H66.3711H66.3648H66.3585H66.3522H66.3459H66.3396H66.3333H66.327H66.3207H66.3144H66.3081H66.3017H66.2954H66.2891H66.2828H66.2765H66.2701H66.2638H66.2575H66.2511H66.2448H66.2385H66.2321H66.2258H66.2194H66.2131H66.2068H66.2004H66.1941H66.1877H66.1814H66.175H66.1686H66.1623H66.1559H66.1496H66.1432H66.1368H66.1305H66.1241H66.1177H66.1114H66.105H66.0986H66.0922H66.0858H66.0795H66.0731H66.0667H66.0603H66.0539H66.0475H66.0411H66.0347H66.0283H66.0219H66.0155H66.0091H66.0027H65.9963H65.9899H65.9835H65.977H65.9706H65.9642H65.9578H65.9513H65.9449H65.9385H65.9321H65.9256H65.9192H65.9127H65.9063H65.8999H62.0999C61.0383 5 60.1616 5.82943 60.1029 6.8894C60.0442 7.94937 60.8239 8.87053 61.879 8.98777C61.8857 8.98852 61.8928 8.9893 61.9002 8.99012C62.3596 9.04104 64.0323 9.22643 65.7904 9.86675C67.6361 10.5389 69.1421 11.5532 69.7637 12.9929Z" fill="white" stroke="white" stroke-width="4" stroke-linejoin="round"/>
<circle cx="65.5" cy="41.5" r="19.5" fill="white"/>
<path d="M89.3998 37.0996C88.5998 36.9996 88.1998 36.6996 87.8998 35.9996C87.3998 34.8996 86.7998 33.7996 86.1998 32.6996C85.6998 31.9996 85.7998 31.4996 86.1998 30.7996C87.4998 28.6996 88.6998 26.4996 90.1998 23.9996C87.3998 21.4996 84.5998 18.8996 81.6998 16.2996C79.8998 17.6996 78.1998 18.8996 76.5998 20.1996L67.2998 13.0996C67.0998 12.5996 66.9998 11.9996 66.7998 11.4996C66.5998 10.7996 66.2998 10.4996 65.5998 10.4996C64.9998 10.4996 64.3998 10.4996 63.7998 10.4996L59.3998 7.09961L55.7998 10.6996C55.5998 10.8996 55.4998 11.1996 55.4998 11.5996C55.3998 13.8996 55.1998 16.2996 55.0998 18.5996C55.0998 18.7996 55.0998 18.8996 54.9998 19.0996L51.3998 19.7996L45.2998 12.8996L41.6998 16.4996C39.4998 18.9996 37.1998 21.4996 34.8998 24.0996C36.8998 26.4996 38.5998 28.6996 40.4998 30.7996C41.0998 31.4996 41.1998 31.9996 40.8998 32.7996C40.4998 33.7996 40.1998 34.8996 39.9998 35.8996C39.9998 36.6996 39.5998 36.9996 38.7998 37.0996C37.8998 37.1996 36.9998 37.3996 36.1998 37.4996L34.7998 35.1996L31.2998 38.5996C30.9998 38.8996 30.9998 39.2996 31.0998 39.8996C31.1998 40.2996 31.8998 47.0996 31.8998 47.1996C31.8998 49.1996 33.1998 49.6996 34.8998 49.8996C36.6998 50.0996 38.5998 50.5996 40.3998 50.7996C41.2998 50.8996 41.6998 51.2996 42.0998 52.0996C42.4998 53.0996 42.9998 53.9996 43.5998 54.8996C44.2998 55.8996 44.1998 56.5996 43.5998 57.3996C42.2998 59.3996 41.1998 61.4996 39.7998 63.7996C42.5998 66.2996 45.4998 68.8996 48.2998 71.4996C50.4998 69.8996 52.3998 68.3996 54.2998 66.8996C54.9998 66.2996 55.5998 66.0996 56.5998 66.6996C57.2998 67.0996 58.0998 67.4996 58.8998 67.5996C60.3998 67.8996 61.0998 68.6996 61.3998 70.1996C61.7998 72.0996 62.4998 73.9996 62.9998 75.8996C63.2998 76.9996 63.7999 77.5996 64.8998 77.4996C65.2999 77.4996 71.9998 77.5996 71.9998 77.5996C73.0998 77.3996 73.6998 77.2996 73.9998 76.8996L77.4998 73.3996L74.5998 72.1996C74.6998 71.2996 74.6998 70.3996 74.6998 69.4996C74.6998 68.5996 74.9998 68.1996 75.7998 67.9996C76.6998 67.7996 77.5998 67.3996 78.2998 66.8996C79.2998 66.1996 80.0998 66.3996 81.0998 67.1996C83.1998 68.6996 85.3998 69.9996 87.8998 71.6996C89.3998 70.4996 89.1998 70.6996 91.4998 68.0996C89.4998 65.6996 90.9998 59.4996 89.1998 57.3996C88.5998 56.6996 88.2998 56.0996 88.7998 55.2996C89.0998 54.5996 89.4998 53.8996 89.4998 53.0996C89.5998 51.3996 90.5998 50.8996 92.0998 50.6996C94.2998 50.3996 96.4998 49.9996 98.8998 49.4996L102.5 45.8996C99.5998 45.2996 92.0998 37.4996 89.3998 37.0996ZM66.7998 61.0996C57.3998 61.0996 48.8998 53.4996 47.6998 44.0996C46.5998 34.6996 53.2998 27.0996 62.6998 27.0996C72.0998 27.0996 80.5998 34.6996 81.6998 44.0996C82.9998 53.4996 76.1998 61.0996 66.7998 61.0996Z" fill="#2FC9F7"/>
<path d="M92.3998 51.5C92.6998 50.8 94.1998 47.2 95.6998 47C97.8998 46.7 100.1 46.3 102.5 45.8L101.8 39.6L101.3 35C98.3998 34.5 95.6998 34 92.9998 33.6C92.1998 33.5 91.7998 33.2 91.4998 32.5C90.9998 31.4 90.3998 30.3 89.7998 29.2C89.2998 28.5 89.3998 28 89.7998 27.3C91.0998 25.2 92.2998 23 93.7998 20.5C90.8998 18 87.9998 15.4 85.0998 12.9C82.8998 14.6 80.8998 16.1 78.8998 17.7C78.2998 18.2 77.6998 18.3 76.8998 17.8C76.0998 17.4 75.0998 17.7 74.2998 17.5C72.6998 17.2 72.2998 15.5 71.8998 14.1C71.3998 12.1 70.6998 10 70.1998 8C69.9998 7.3 69.6998 7 68.9998 7C65.9998 7 62.9998 7 59.9998 7C59.1998 7 58.9998 7.4 58.9998 8.1C58.8998 10.4 58.6998 12.8 58.5998 15.1C58.5998 15.7 58.3998 16.1 57.8998 16.3C57.7998 16.3 57.6998 16.4 57.5998 16.4C56.4998 16.8 55.3998 17.2 54.3998 17.8C53.7998 18.1 53.2998 18 52.6998 17.7C50.3998 16.1 47.9998 14.6 45.2998 12.8C43.0998 15.3 40.7998 17.8 38.4998 20.4C40.4998 22.8 42.1998 25 44.0998 27.1C44.6998 27.8 44.7998 28.3 44.4998 29.1C44.0998 30.1 43.7998 31.2 43.5998 32.2C43.4998 33 43.0998 33.3 42.2998 33.4C40.1998 33.7 38.0998 34.2 35.9998 34.5C34.9998 34.7 34.3998 35 34.5998 36.2C34.6998 36.6 35.3998 43.4 35.3998 43.5C35.3998 45.5 36.6998 46 38.3998 46.2C40.1998 46.4 42.0998 46.9 43.8998 47.1C44.7998 47.2 45.1998 47.6 45.5998 48.4C45.9998 49.4 46.4998 50.3 47.0998 51.2C47.7998 52.2 47.6998 52.9 47.0998 53.7C45.7998 55.7 44.6998 57.8 43.2998 60.1C46.0998 62.6 48.9998 65.2 51.7998 67.8C53.8998 66.2 55.8998 64.7 57.7998 63.2C58.4998 62.6 59.0998 62.4 60.0998 63C60.7998 63.4 61.5998 63.8 62.3998 63.9C63.8998 64.2 64.5998 65 64.8998 66.5C65.2998 68.4 65.9998 70.3 66.4998 72.2C66.7998 73.3 67.2998 73.9 68.3998 73.8C68.7998 73.8 75.1998 73.9 75.4998 73.9C77.7998 73.4 77.7998 73.4 77.9998 71.1C78.0998 69.3 78.2998 67.6 78.2998 65.8C78.2998 64.9 78.5998 64.5 79.3998 64.3C80.2998 64.1 81.1998 63.7 81.8998 63.2C82.8998 62.5 83.6998 62.7 84.6998 63.5C86.7998 65 88.9998 66.3 91.4998 68C93.6998 65.5 95.9998 62.9 98.2998 60.4C96.2998 58 94.5998 55.8 92.7998 53.7C92.2998 52.9 91.9998 52.3 92.3998 51.5ZM83.3998 45.7C82.7998 48.1 81.5998 50.2 79.8998 51.9C79.5998 52.3 79.1998 52.6 78.7998 52.9C76.4998 54.7 73.4998 55.8 70.0998 55.8C61.5998 55.8 53.8998 48.9 52.8998 40.4C52.6998 38.4 52.7998 36.4 53.3998 34.6C53.4998 34.3 53.5998 34.1 53.5998 34.1C54.4998 31.4 56.1998 29.1 58.4998 27.5C58.4998 27.5 58.7998 27.2 59.4998 26.9C60.7998 26.2 62.1998 25.7 63.6998 25.4C64.5998 25.2 65.4998 25.1 66.4998 25.1C74.0998 25.1 80.9998 30.6 83.0998 37.8C83.3998 38.7 83.4998 39.6 83.5998 40.5C83.9998 42.3 83.7998 44.1 83.3998 45.7Z" fill="#5AE0FF"/>
<path d="M79.9999 51.8996C76.8999 55.7996 71.5999 59.3996 63.3999 55.7996C49.6999 49.7996 52.6999 37.1996 53.4999 34.5996C52.9999 36.3996 52.7999 38.3996 52.9999 40.3996C53.9999 48.8996 61.6999 55.7996 70.1999 55.7996C73.5999 55.7996 76.5999 54.6996 78.8999 52.8996C79.2999 52.5996 79.5999 52.2996 79.9999 51.8996Z" fill="white"/>
<path d="M101.8 39.5C94.5 40 88.4 39.3 83.2 37.8C81.1 30.6 74.2 25.1 66.6 25.1C65.6 25.1 64.7 25.2 63.8 25.4C60.9 22 59.1 18.6 58 16.3C58.5 16.1 58.7 15.7 58.7 15.1C58.8 12.8 59 10.4 59.1 8.1C59.1 7.4 59.3 7 60.1 7C60.8 7 61.4 7 62.1 7H65.9C67 7 68 7 69.1 7C69.8 7 70.1 7.3 70.3 8C70.7 9.4 71.2 10.8 71.5 12.2C71.7 12.8 71.8 13.4 72 14.1C72.4 16 76.2 17.3 76.9 17.8C77.7 18.2 78.2 18.2 78.9 17.7C79.4 17.3 79.9 16.9 80.5 16.5C82 15.4 83.5 14.2 85.1 13C87.5 15.2 89.9 17.3 92.3 19.4C92.8 19.8 93.2 20.2 93.7 20.6C93.2 21.5 92.7 22.3 92.2 23.1C91.4 24.5 90.6 25.8 89.8 27.1C89.8 27.2 89.7 27.3 89.7 27.3C89.3 27.9 89.2 28.4 89.7 29.2C90.4 30.2 90.9 31.4 91.4 32.5C91.7 33.2 92.1 33.5 92.9 33.6C95.6 34 98.3 34.5 101.2 35L101.8 39.5Z" fill="#8DEFFF"/>
<path d="M92.1999 23.0004C92.3999 21.1004 89.7999 19.1004 87.1999 16.6004C84.6999 14.2004 80.8999 16.2004 80.5999 16.4004C82.0999 15.3004 83.5999 14.1004 85.1999 12.9004C87.5999 15.1004 89.9999 17.2004 92.3999 19.3004C92.8999 19.7004 93.2999 20.1004 93.7999 20.5004C93.1999 21.4004 92.6999 22.2004 92.1999 23.0004Z" fill="white"/>
<path d="M71.5999 12.2C69.6999 7.8 62.9999 7.1 62.0999 7H65.8999C66.9999 7 67.9999 7 69.0999 7C69.7999 7 70.0999 7.3 70.2999 8C70.6999 9.4 71.1999 10.8 71.5999 12.2Z" fill="white"/>
</svg>
